<?xml version="1.0" encoding="UTF-8"?>
<svg version="1.1" xmlns="http://www.w3.org/2000/svg" width="16" height="16">
<path d="M0 0 C14 5 14 5 12.75 7.0625 C11.72924812 9.05250513 11.72924812 9.05250513 12.875 11.25 C13.24625 11.8275 13.6175 12.405 14 13 C13.2575 12.484375 12.515 11.96875 11.75 11.4375 C9.20008215 9.78983691 9.20008215 9.78983691 6.875 10.1875 C4.73199639 11.0500132 4.73199639 11.0500132 2 13 C2.4125 12.113125 2.825 11.22625 3.25 10.3125 C3.4975 9.219375 3.745 8.12625 4 7 C2.21531661 4.22712063 2.21531661 4.22712063 0 2 C0 1.34 0 0.68 0 0 Z " fill="#283138" transform="translate(0,0)"/>
<path d="M0 0 C1.65 1.65 3.3 3.3 5 5 C3.61410019 8.09162264 2.50816459 9.49183541 0 12 C0 8.04 0 4.08 0 0 Z " fill="#0C0C0C" transform="translate(0,2)"/>
</svg>
