<?xml version="1.0" encoding="UTF-8"?>
<svg version="1.1" xmlns="http://www.w3.org/2000/svg" width="16" height="16">
<path d="M0 0 C1.11375 0.7425 1.11375 0.7425 2.25 1.5 C5.06318188 3.31923475 5.06318188 3.31923475 9 3 C9.66 3 10.32 3 11 3 C11 4.98 11 6.96 11 9 C7.7 9 4.4 9 1 9 C1.20625 8.2575 1.4125 7.515 1.625 6.75 C2.04408751 3.67669159 1.61949011 2.57213134 0 0 Z " fill="#3B617D" transform="translate(5,7)"/>
<path d="M0 0 C3.37503669 1.1858237 5.64722731 2.27573689 8 5 C7.34 6.65 6.68 8.3 6 10 C4.02 10 2.04 10 0 10 C0 6.7 0 3.4 0 0 Z " fill="#101010" transform="translate(0,6)"/>
<path d="M0 0 C0.598125 0.165 1.19625 0.33 1.8125 0.5 C4.11344336 1.1114124 4.11344336 1.1114124 7 1 C7 1.66 7 2.32 7 3 C4.03 3 1.06 3 -2 3 C-1.34 2.01 -0.68 1.02 0 0 Z " fill="#12181C" transform="translate(9,13)"/>
</svg>
