<?xml version="1.0" encoding="UTF-8"?>
<svg version="1.1" xmlns="http://www.w3.org/2000/svg" width="16" height="16">
<path d="M0 0 C5.65741858 1.13148372 5.65741858 1.13148372 8.3125 3.9375 C8.82425781 4.46214844 9.33601562 4.98679687 9.86328125 5.52734375 C11 7 11 7 11 9 C14.0745356 8.2236068 14.0745356 8.2236068 16 6 C16 7.65 16 9.3 16 11 C10.72 11 5.44 11 0 11 C0 7.37 0 3.74 0 0 Z " fill="#121212" transform="translate(0,5)"/>
<path d="M0 0 C1.15224028 0.92961422 2.29659176 1.8690125 3.4375 2.8125 C4.07558594 3.33457031 4.71367188 3.85664063 5.37109375 4.39453125 C7 6 7 6 8 9 C11.0745356 8.2236068 11.0745356 8.2236068 13 6 C13 7.65 13 9.3 13 11 C10.76953125 11.2734375 10.76953125 11.2734375 8 11 C5.76171875 9.1015625 5.76171875 9.1015625 3.6875 6.625 C2.64142578 5.40683594 2.64142578 5.40683594 1.57421875 4.1640625 C0 2 0 2 0 0 Z " fill="#668297" transform="translate(3,5)"/>
</svg>
